<mxfile host="app.diagrams.net" modified="2023-12-28T14:19:35.876Z" agent="Mozilla/5.0 (Macintosh; Intel Mac OS X 10_15_7) AppleWebKit/537.36 (KHTML, like Gecko) Chrome/114.0.0.0 Safari/537.36" version="22.1.15" etag="Cyq_RXtuqxm0Fm1iJN_r" type="github">
  <diagram name="Page-1" id="3lTLmVB47ob743L2b7pZ">
    <mxGraphModel>
      <root>
        <mxCell id="0" />
        <mxCell id="1" parent="0" />
      </root>
    </mxGraphModel>
  </diagram>
</mxfile>
